<svg height="512" viewBox="0 0 48 48" width="512" xmlns="http://www.w3.org/2000/svg"><g id="_18._google_ads_logo" data-name="18. google ads logo"><path d="m15.93 41a8 8 0 0 0 -13.77-8.15l14.84-25.66a8 8 0 0 0 .18 8c-.11 0 .18.28 6.85 11.88z" fill="#fc6"/><path d="m47 37c0 8.18-10.87 11-14.93 4-15.39-26.67-15-25.86-14.92-25.86a8 8 0 1 1 13.85-7.95c16 27.69 16 26.81 16 29.81z" fill="#6fabe6"/><path d="m47 37a7.82 7.82 0 0 1 -.52 2.83 8 8 0 0 1 -12.41-1.83c-15.39-26.67-15-25.86-14.92-25.86a8 8 0 0 1 -.63-7 8 8 0 0 1 12.48 2.05c16 27.69 16 26.81 16 29.81z" fill="#82bcf4"/><path d="m22.85 25a17.07 17.07 0 0 1 -17.33 8.36l-3.36-.51 14.84-25.66a8 8 0 0 0 .18 8c-.13-.05-.09-.13 5.67 9.81z" fill="#ffde76"/><path d="m17 37a8.12 8.12 0 0 1 -1.07 4c-4.08 7.07-14.93 4.16-14.93-4a8 8 0 0 1 16 0z" fill="#9dcc6b"/><path d="m16 41c-7.09 4-15-4-10.95-10.95 6.95-4.05 14.95 3.95 10.95 10.95z" fill="#b5e08c"/></g></svg>