<svg viewBox="0 0 512 512" xmlns="http://www.w3.org/2000/svg"><g id="Layer_2" data-name="Layer 2"><g id="Adobe_copy_4" data-name="Adobe copy 4"><g id="_34" fill="#512da8" data-name="34"><path id="background" d="m440.34 34a37.7 37.7 0 0 1 37.66 37.66v368.68a37.7 37.7 0 0 1 -37.66 37.66h-368.68a37.7 37.7 0 0 1 -37.66-37.66v-368.68a37.7 37.7 0 0 1 37.66-37.66zm0-34h-368.68a71.66 71.66 0 0 0 -71.66 71.66v368.68a71.66 71.66 0 0 0 71.66 71.66h368.68a71.66 71.66 0 0 0 71.66-71.66v-368.68a71.66 71.66 0 0 0 -71.66-71.66z"/><path d="m90.45 358.7a21.55 21.55 0 0 1 1-7.27l65.83-203.1c3.14-9.59 10.08-14.72 19.18-14.72 9.59 0 16.21 5.13 19.35 14.72l65.82 203.1a22.83 22.83 0 0 1 1 7.27c0 11.42-9.43 19.69-20.35 19.69a19.77 19.77 0 0 1 -19-14.39l-13.89-44.66h-65.69l-13.89 44.66a19.75 19.75 0 0 1 -19 14.39c-10.93 0-20.36-8.27-20.36-19.69zm65.33-78.7h41.51l-20.67-67z"/><path d="m299.83 318.35v-50c0-41 29.44-62 60.86-62s60.86 21 60.86 62v20.18a18.88 18.88 0 0 1 -18.85 19h-63.84v10.75c0 11.91 4 22 22.66 22 14.38 0 22.16-10.09 25.63-14.89s7.44-7.94 14.72-7.94c10.75 0 18.69 7.61 18.69 18.2 0 3.63-.83 8.26-5 14.38-12.9 19.19-34.57 28.29-55.74 28.29-32.21.07-59.99-18.95-59.99-59.97zm39-46.47h43.66v-2.81c0-14.23-6.12-24.65-21.83-24.65s-21.83 10.26-21.83 24.65z"/></g></g></g></svg>