<svg height="512" viewBox="0 0 512 512" width="512" xmlns="http://www.w3.org/2000/svg"><g id="Layer_2" data-name="Layer 2"><g id="Layer_1-2" data-name="Layer 1"><g id="a"><circle cx="256" cy="256" fill="#f7aa43" r="256"/><circle cx="256" cy="256" fill="#fff" r="223"/><path d="m304.73 361.57q-2-9.57-3-16.9a125.07 125.07 0 0 1 -1.27-14.74 89.69 89.69 0 0 1 -28 25.48 71.67 71.67 0 0 1 -37.21 10.26q-33 0-50.29-16.9t-17.29-46.58q0-30.27 24.51-47.36t66.51-17.09h41.79v-20.9q0-18.56-11.32-29.39t-32-10.84q-18.75 0-30.27 9.37t-11.52 22.46l-36.53.39-.39-1.17q-1.37-23 21.59-42.19t59.27-19.14q35.94 0 57.82 18.26t21.87 52.64v101.77a198.31 198.31 0 0 0 1.17 21.87 111.92 111.92 0 0 0 4.3 20.71zm-63.87-28.13a68.52 68.52 0 0 0 37.7-10.74q16.8-10.74 21.87-24.61v-34.38h-43.16q-23.25 0-37.21 11.72t-13.96 27.57q0 14.07 8.79 22.27t25.97 8.17z" fill="#f7aa43"/></g></g></g></svg>