<svg enable-background="new 0 0 512 512" height="512" viewBox="0 0 512 512" width="512" xmlns="http://www.w3.org/2000/svg"><g id="_x31_2_x2C__Business_x2C__delivery_x2C__globe_x2C__logistics_x2C__network_x2C__worldwide"><g id="XMLID_532_"><g id="XMLID_86_"><path id="XMLID_350_" d="m166 316h-126.36c-11.046 0-20-8.954-20-20s8.954-20 20-20h126.36c16.542 0 30-13.458 30-30 0-3.317-.533-6.572-1.583-9.675-1.007-2.958-2.494-5.765-4.407-8.313-4.552-6.059-5.288-14.17-1.901-20.95 3.386-6.779 10.313-11.062 17.891-11.062h30c11.028 0 20-8.972 20-20 0-5.336-2.082-10.357-5.862-14.138-3.78-3.78-8.801-5.862-14.138-5.862h-164.42c-11.046 0-20-8.954-20-20s8.954-20 20-20h164.42c16.021 0 31.087 6.243 42.423 17.578 11.335 11.336 17.577 26.401 17.577 42.422 0 33.084-26.916 60-60 60h-.711c.473 3.301.711 6.64.711 10 0 38.599-31.402 70-70 70z" fill="#f4db25"/></g><g id="XMLID_85_"><path id="XMLID_347_" d="m476 496h-160c-11.046 0-20-8.954-20-20v-160c0-11.046 8.954-20 20-20h160c11.046 0 20 8.954 20 20v160c0 11.046-8.954 20-20 20zm-140-40h120v-120h-120z" fill="#00f"/></g><g id="XMLID_84_"><path id="XMLID_346_" d="m396 376c-11.046 0-20-8.954-20-20v-40c0-11.046 8.954-20 20-20s20 8.954 20 20v40c0 11.046-8.954 20-20 20z" fill="#00f"/></g><g id="XMLID_83_"><path id="XMLID_345_" d="m256 496c-64.105 0-124.374-24.965-169.705-70.295-45.33-45.331-70.295-105.6-70.295-169.705s24.965-124.374 70.295-169.705 105.6-70.295 169.705-70.295 124.374 24.965 169.705 70.295c45.33 45.331 70.295 105.6 70.295 169.705 0 22.204-3.039 44.221-9.033 65.438-3.004 10.63-14.063 16.81-24.685 13.809-10.63-3.003-16.813-14.055-13.81-24.684 4.996-17.678 7.528-36.036 7.528-54.563 0-110.28-89.72-200-200-200s-200 89.72-200 200 89.72 200 200 200c18.527 0 36.885-2.532 54.563-7.527 10.63-2.997 21.681 3.18 24.684 13.81 3.004 10.63-3.179 21.681-13.809 24.685-21.217 5.993-43.234 9.032-65.438 9.032z" fill="#00f"/></g></g></g></svg>