<svg viewBox="0 0 512 512" xmlns="http://www.w3.org/2000/svg"><g id="Layer_2" data-name="Layer 2"><g id="Adobe_copy_4" data-name="Adobe copy 4"><g id="_32" fill="#704639" data-name="32"><path id="background" d="m440.34 34a37.7 37.7 0 0 1 37.66 37.66v368.68a37.7 37.7 0 0 1 -37.66 37.66h-368.68a37.7 37.7 0 0 1 -37.66-37.66v-368.68a37.7 37.7 0 0 1 37.66-37.66zm0-34h-368.68a71.66 71.66 0 0 0 -71.66 71.66v368.68a71.66 71.66 0 0 0 71.66 71.66h368.68a71.66 71.66 0 0 0 71.66-71.66v-368.68a71.66 71.66 0 0 0 -71.66-71.66z"/><path d="m129.48 358.7a21.55 21.55 0 0 1 1-7.27l65.83-203.1c3.14-9.59 10.08-14.72 19.18-14.72 9.59 0 16.21 5.13 19.35 14.72l65.82 203.1a22.83 22.83 0 0 1 1 7.27c0 11.42-9.43 19.69-20.35 19.69a19.74 19.74 0 0 1 -19-14.39l-13.9-44.66h-65.68l-13.89 44.66a19.75 19.75 0 0 1 -19 14.39c-10.93 0-20.36-8.27-20.36-19.69zm65.33-78.7h41.51l-20.67-67z"/><path d="m337.53 156.11a22.5 22.5 0 1 1 45 0c0 12.73-9.76 22.82-22.49 22.82s-22.51-10.09-22.51-22.82zm3.15 202.76v-133a19.52 19.52 0 1 1 39 0v133a19.52 19.52 0 1 1 -39 0z"/></g></g></g></svg>