<svg id="Layer_2" viewBox="0 0 512 512" xmlns="http://www.w3.org/2000/svg" xmlns:xlink="http://www.w3.org/1999/xlink" data-name="Layer 2"><linearGradient id="linear-gradient" gradientUnits="userSpaceOnUse" x1="29.29" x2="482.71" y1="29.29" y2="482.71"><stop offset="0" stop-color="#00b7ff"/><stop offset="1" stop-color="#003cff"/></linearGradient><g id="Icon"><path id="India" d="m412 0h-312c-55.23 0-100 44.77-100 100v312c0 55.23 44.77 100 100 100h312c55.23 0 100-44.77 100-100v-312c0-55.23-44.77-100-100-100zm75 412c0 41.36-33.64 75-75 75h-312c-41.36 0-75-33.64-75-75v-312c0-41.36 33.64-75 75-75h312c41.36 0 75 33.64 75 75zm-297.03-222.36v132.73c0 9.77-8.34 18.35-18.1 18.35s-18.36-8.58-18.36-18.35v-132.73c0-9.77 8.34-18.35 18.36-18.35s18.1 8.58 18.1 18.35zm168.52 0v133.2c0 11.44-7.39 17.4-16.92 17.4-7.86 0-14.07-4.05-18.59-10.48l-67.91-92.94v85.32c0 9.77-7.86 18.1-17.87 18.1s-18.59-8.33-18.59-18.1v-133.45c0-11.21 7.39-17.4 17.15-17.4 7.63 0 13.82 4.05 18.36 10.48l67.91 92.94v-85.07c0-10.01 8.09-18.35 17.87-18.35 10.48 0 18.59 8.33 18.59 18.35z" fill="url(#linear-gradient)"/></g></svg>