<svg id="Layer_2" viewBox="0 0 512 512" xmlns="http://www.w3.org/2000/svg" xmlns:xlink="http://www.w3.org/1999/xlink" data-name="Layer 2"><linearGradient id="linear-gradient" gradientUnits="userSpaceOnUse" x1="29.29" x2="482.71" y1="29.29" y2="482.71"><stop offset="0" stop-color="#00b7ff"/><stop offset="1" stop-color="#003cff"/></linearGradient><g id="Icon"><path id="Palestine" d="m412 0h-312c-55.23 0-100 44.77-100 100v312c0 55.23 44.77 100 100 100h312c55.23 0 100-44.77 100-100v-312c0-55.23-44.77-100-100-100zm75 412c0 41.36-33.64 75-75 75h-312c-41.36 0-75-33.64-75-75v-312c0-41.36 33.64-75 75-75h312c41.36 0 75 33.64 75 75zm-236.88-184.72c0 30.04-24.06 54.1-61.24 54.1h-27.65v41.7c0 9.78-7.86 18.12-17.64 18.12s-18.1-8.34-18.1-18.12v-130.82c0-11.45 8.34-19.79 19.77-19.79h43.62c37.18 0 61.24 24.8 61.24 54.81zm-34.79 0c0-18.59-12.63-24.31-28.37-24.31h-25.73v47.91h25.73c15.74 0 28.37-5.01 28.37-23.59zm154.74-39.8c5.24 5.96 7.86 10.48 7.86 15.97 0 7.86-6.44 14.07-14.79 14.07-5.24 0-10.71-3.1-14.05-6.67-6.67-5.96-11.2-8.58-20.02-8.58-13.1 0-20 6.91-20 15.95 0 6.21 2.62 13.12 16.43 18.36l7.86 2.85c39.33 14.55 53.15 29.09 53.15 51.24 0 33.84-33.61 50.27-61.24 50.27-18.12 0-37.18-6.91-49.58-20.49-2.62-3.1-7.63-9.53-7.63-17.64 0-7.37 4.77-15 14.53-15 7.88 0 13.12 4.99 16.92 9.99 8.34 9.29 18.59 11.45 25.5 11.45 10.01 0 24.8-3.57 24.8-18.59 0-10.73-6.67-16.45-24.8-23.59l-8.58-3.1c-24.78-9.53-43.37-21.21-43.37-46.22 0-29.07 24.31-46.96 54.58-46.96 20.49 0 32.64 6.93 42.42 16.69z" fill="url(#linear-gradient)"/></g></svg>