<svg id="line_copy" viewBox="0 0 64 64" xmlns="http://www.w3.org/2000/svg" xmlns:xlink="http://www.w3.org/1999/xlink" data-name="line copy"><linearGradient id="linear-gradient" gradientUnits="userSpaceOnUse" x1="11.49" x2="52.51" y1="32" y2="32"><stop offset="0" stop-color="#ff81ff"/><stop offset="1" stop-color="#a93aff"/></linearGradient><path d="m52.50977 13.8999v7.5601a1 1 0 0 1 -2 0v-7.146l-8.31348-8.314h-26.70606a2.0023 2.0023 0 0 0 -2 2v13.46a1 1 0 0 1 -2 0v-13.46a4.00427 4.00427 0 0 1 4-4h27.12012a.99927.99927 0 0 1 .707.293l8.89942 8.8999a1.00014 1.00014 0 0 1 .293.707zm-1 33.64014a.99973.99973 0 0 0 -1 1v7.45996a2.0023 2.0023 0 0 1 -2 2h-33.01954a2.0023 2.0023 0 0 1 -2-2v-7.46a1 1 0 0 0 -2 0v7.46a4.00427 4.00427 0 0 0 4 4h33.01954a4.00427 4.00427 0 0 0 4-4v-7.46a.99974.99974 0 0 0 -1-1zm-34.50977-23.43457h-2.50781a3.00328 3.00328 0 0 0 -3 3v15.78906a3.00328 3.00328 0 0 0 3 3h28.50781a1 1 0 0 0 0-2h-28.50781a1.001 1.001 0 0 1 -1-1v-15.78906a1.001 1.001 0 0 1 1-1h2.50781a1 1 0 0 0 0-2zm30 21.78906h2.50781a3.00328 3.00328 0 0 0 3-3v-15.78906a3.00328 3.00328 0 0 0 -3-3h-28.50781a1 1 0 0 0 0 2h28.50781a1.001 1.001 0 0 1 1 1v15.78906a1.001 1.001 0 0 1 -1 1h-2.50781a1 1 0 0 0 0 2zm-11.31641-4a.99973.99973 0 0 0 1-1v-11.78906a1 1 0 0 0 -2 0v4.89453h-5.36718v-4.89453a1 1 0 0 0 -2 0v11.78906a1 1 0 0 0 2 0v-4.89453h5.36718v4.89453a.99974.99974 0 0 0 1 1zm-18.68359-13.78906h4.4209a3.94727 3.94727 0 0 1 0 7.89453h-3.4209v4.89453a1 1 0 0 1 -2 0v-11.78906a.99974.99974 0 0 1 1-1zm1 5.89453h3.4209a1.94727 1.94727 0 0 0 0-3.89453h-3.4209zm26.05273 2h-3.42089v4.89453a1 1 0 0 1 -2 0v-11.78906a.99973.99973 0 0 1 1-1h4.42089a3.94727 3.94727 0 1 1 0 7.89453zm1.94727-3.94727a1.94977 1.94977 0 0 0 -1.94727-1.94726h-3.42089v3.89453h3.42089a1.94978 1.94978 0 0 0 1.94727-1.94727z" fill="url(#linear-gradient)"/></svg>