<svg viewBox="0 0 512 512" xmlns="http://www.w3.org/2000/svg"><g id="Layer_2" data-name="Layer 2"><g id="Premiere_Pro_Icon" data-name="Premiere Pro Icon"><rect fill="#fff" height="482" rx="45.83" width="482" x="15" y="15"/><g fill="#5d6cdb"><path d="m451.17 0h-390.34a60.82 60.82 0 0 0 -60.83 60.83v390.34a60.82 60.82 0 0 0 60.83 60.83h390.34a60.82 60.82 0 0 0 60.83-60.83v-390.34a60.82 60.82 0 0 0 -60.83-60.83zm30.83 451.17a30.86 30.86 0 0 1 -30.83 30.83h-390.34a30.86 30.86 0 0 1 -30.83-30.83v-390.34a30.86 30.86 0 0 1 30.83-30.83h390.34a30.86 30.86 0 0 1 30.83 30.83z"/><path d="m378 204c-20.7 0-37.8 10.8-48 23.4-.3-6.6-1.5-14.1-3-18a3 3 0 0 0 -3.3-2.4h-28.2c-1.5 0-1.8.3-1.8 1.8 1.2 9.9 1.5 27.3 1.5 40.2v103.5c0 1.5.6 2.4 2.7 2.4h31.2c1.8 0 2.7-.6 2.7-2.4v-96.6c6.9-9 24.6-16.5 45.9-15.9 2.1 0 2.7-.6 2.7-2.1v-31.8c-.05-1.85-.65-2.1-2.4-2.1zm-188.7-46.8c-21.9 0-44.1.6-55.5.9-1.5 0-2.1.9-2.1 2.4v192.3c0 1.5.9 2.1 2.4 2.1h31.5c1.8 0 2.4-.9 2.4-2.4v-61.5h18.9c45.3 0 82.2-20.7 82.2-68.4-.05-33.05-21.65-65.45-79.85-65.45zm-2.4 102c-9.9 0-13.8 0-18.9-.3v-69.6c3.3-.3 11.7-.6 22.2-.6 27.6 0 43.2 12.9 43.2 34.8-.05 27.25-21.35 35.65-46.55 35.65z"/></g></g></g></svg>