<?xml version="1.0" encoding="utf-8"?>
<!-- Generator: Adobe Illustrator 27.5.0, SVG Export Plug-In . SVG Version: 6.00 Build 0)  -->
<svg version="1.1" id="Layer_1" xmlns="http://www.w3.org/2000/svg" xmlns:xlink="http://www.w3.org/1999/xlink" x="0px" y="0px"
	 viewBox="0 0 5000 5000" style="enable-background:new 0 0 5000 5000;" xml:space="preserve">
<rect y="-0.334" style="fill:#FFFFFF;" width="5000" height="5000"/>
<path style="fill-rule:evenodd;clip-rule:evenodd;fill:#25D366;" d="M3453.94,714.584
	c-250.91-252.771-592.648-394.455-948.805-393.371c-739.157,0-1340.718,601.673-1340.718,1341.279
	c-0.014,235.376,61.917,466.61,179.57,670.471l-190.794,695.162l711.099-186.641c196.535,107.144,416.774,163.361,640.618,163.521
	l0,0c740.954,0.155,1341.741-600.382,1341.895-1341.336c0.074-355.874-141.247-697.197-392.865-948.861l0,0V714.584z
	 M2505.584,2779.083c-199.832-0.093-395.954-53.979-567.779-156.002l-40.852-24.354l-421.99,110.548l112.231-411.329l-26.374-42.199
	c-328.244-521.18-171.838-1209.775,349.343-1538.019c441.259-277.909,1016.192-212.932,1384.297,156.448
	c435.746,435.84,435.669,1142.4-0.171,1578.146c-209.226,209.181-492.958,326.714-788.816,326.759H2505.584z M3117.246,1943.407
	c-33.669-16.947-198.313-97.754-228.84-108.977c-30.527-11.223-52.973-16.947-75.756,16.947s-86.643,108.977-106.171,131.535
	s-39.169,25.477-72.389,8.53c-33.22-16.947-141.749-52.3-269.356-166.552c-73.487-67.785-136.635-145.982-187.427-232.094
	c-19.641-33.669-2.133-51.739,14.927-68.125c17.059-16.386,33.669-39.057,50.167-58.697c13.951-16.927,25.3-35.84,33.669-56.116
	c9.049-18.77,8.036-40.835-2.694-58.697c-9.091-16.835-76.43-181.815-103.365-249.042s-54.881-56.116-75.532-57.687
	c-20.651-1.571-41.863-1.01-63.972-1.01c-34.46,0.808-67.013,15.986-89.785,41.862c-30.19,33.333-116.945,114.701-116.945,279.681
	s119.976,324.125,136.81,346.795c16.835,22.671,236.359,361.049,573.054,506.164c79.909,34.343,142.31,54.993,190.794,70.93
	c68.373,20.62,140.594,25.114,210.995,13.131c64.421-9.427,198.201-80.919,226.371-159.144
	c28.17-78.225,28.058-145.901,19.64-159.257c-8.417-13.356-30.19-23.12-63.972-40.291l0,0L3117.246,1943.407z"/>
<g>
	<g>
		<path d="M1557.418,4437.547h-339.775c-60.987,0-110.427-49.439-110.427-110.427v-371.326c0-60.987,49.44-110.427,110.427-110.427
			h339.775c60.987,0,110.427,49.44,110.427,110.427v371.326C1667.845,4388.107,1618.405,4437.547,1557.418,4437.547z"/>
		<path style="fill-rule:evenodd;clip-rule:evenodd;fill:#FFFFFF;" d="M1516.743,4011.413
			c-33.986-34.238-80.275-53.43-128.517-53.283c-100.12,0-181.602,81.498-181.602,181.678c-0.002,31.882,8.387,63.203,24.323,90.816
			l-25.843,94.161l96.32-25.281c26.621,14.513,56.453,22.127,86.773,22.149l0,0c100.364,0.021,181.741-81.323,181.762-181.686
			c0.01-48.204-19.132-94.437-53.214-128.525l0,0V4011.413z M1388.287,4291.052c-27.068-0.012-53.633-7.312-76.907-21.13
			l-5.533-3.299l-57.159,14.974l15.202-55.715l-3.573-5.716c-44.461-70.595-23.276-163.866,47.319-208.327
			c59.769-37.643,137.645-28.842,187.505,21.191c59.022,59.035,59.012,154.74-0.023,213.763
			c-28.34,28.333-66.772,44.254-106.847,44.26H1388.287z M1471.137,4177.859c-4.561-2.296-26.862-13.241-30.997-14.761
			c-4.135-1.521-7.175-2.295-10.261,2.295c-3.086,4.591-11.736,14.761-14.381,17.817c-2.645,3.055-5.306,3.451-9.805,1.155
			c-4.5-2.296-19.2-7.084-36.485-22.56c-9.954-9.182-18.507-19.773-25.387-31.438c-2.66-4.561-0.289-7.008,2.022-9.228
			c2.311-2.219,4.561-5.29,6.795-7.951c1.89-2.292,3.427-4.854,4.561-7.601c1.226-2.542,1.089-5.531-0.365-7.95
			c-1.231-2.281-10.353-24.627-14.001-33.733c-3.649-9.106-7.434-7.601-10.231-7.814s-5.67-0.137-8.665-0.137
			c-4.668,0.109-9.077,2.165-12.161,5.67c-4.089,4.515-15.84,15.536-15.84,37.883c0,22.347,16.251,43.903,18.531,46.974
			c2.28,3.071,32.015,48.905,77.621,68.561c10.824,4.652,19.276,7.449,25.843,9.608c9.261,2.793,19.044,3.402,28.58,1.778
			c8.726-1.277,26.847-10.96,30.662-21.556s3.801-19.763,2.66-21.572c-1.14-1.809-4.089-3.131-8.665-5.458l0,0L1471.137,4177.859z"
			/>
	</g>
	<g>
	</g>
</g>
<g>
	<path style="fill-rule:evenodd;clip-rule:evenodd;" d="M2629.213,4011.413c-33.986-34.238-80.275-53.43-128.517-53.283
		c-100.12,0-181.603,81.498-181.603,181.678c-0.002,31.882,8.387,63.203,24.323,90.816l-25.844,94.161l96.32-25.281
		c26.621,14.513,56.453,22.127,86.773,22.149l0,0c100.364,0.021,181.741-81.323,181.762-181.686
		c0.01-48.204-19.132-94.437-53.214-128.525l0,0V4011.413z M2500.756,4291.052c-27.068-0.012-53.633-7.312-76.907-21.13
		l-5.533-3.299l-57.159,14.974l15.202-55.715l-3.573-5.716c-44.461-70.595-23.276-163.866,47.319-208.327
		c59.769-37.643,137.645-28.842,187.505,21.191c59.022,59.035,59.012,154.74-0.023,213.763
		c-28.34,28.333-66.772,44.254-106.846,44.26H2500.756z M2583.607,4177.859c-4.561-2.296-26.862-13.241-30.997-14.761
		c-4.135-1.521-7.175-2.295-10.261,2.295s-11.736,14.761-14.381,17.817c-2.645,3.055-5.305,3.451-9.805,1.155
		c-4.5-2.296-19.2-7.084-36.485-22.56c-9.954-9.182-18.507-19.773-25.387-31.438c-2.66-4.561-0.289-7.008,2.022-9.228
		c2.311-2.219,4.561-5.29,6.795-7.951c1.89-2.292,3.427-4.854,4.561-7.601c1.226-2.542,1.088-5.531-0.365-7.95
		c-1.231-2.281-10.353-24.627-14.001-33.733s-7.434-7.601-10.231-7.814c-2.797-0.213-5.67-0.137-8.665-0.137
		c-4.668,0.109-9.077,2.165-12.162,5.67c-4.089,4.515-15.84,15.536-15.84,37.883c0,22.347,16.251,43.903,18.531,46.974
		s32.015,48.905,77.621,68.561c10.824,4.652,19.276,7.449,25.843,9.608c9.261,2.793,19.044,3.402,28.58,1.778
		c8.726-1.277,26.847-10.96,30.662-21.556s3.801-19.763,2.66-21.572s-4.089-3.131-8.665-5.458l0,0L2583.607,4177.859z"/>
	<g>
	</g>
</g>
<g>
	<g>
		<circle cx="3612.47" cy="4141.457" r="323.418"/>
		<path style="fill-rule:evenodd;clip-rule:evenodd;fill:#FFFFFF;" d="M3741.683,4011.413
			c-33.986-34.238-80.275-53.43-128.517-53.283c-100.12,0-181.603,81.498-181.603,181.678c-0.002,31.882,8.387,63.203,24.323,90.816
			l-25.843,94.161l96.32-25.281c26.621,14.513,56.453,22.127,86.773,22.149l0,0c100.363,0.021,181.741-81.323,181.762-181.686
			c0.01-48.204-19.132-94.437-53.214-128.525l0,0V4011.413z M3613.226,4291.052c-27.067-0.012-53.633-7.312-76.906-21.13
			l-5.534-3.299l-57.159,14.974l15.202-55.715l-3.573-5.716c-44.461-70.595-23.276-163.866,47.319-208.327
			c59.769-37.643,137.645-28.842,187.505,21.191c59.023,59.035,59.012,154.74-0.023,213.763
			c-28.34,28.333-66.772,44.254-106.846,44.26H3613.226z M3696.077,4177.859c-4.561-2.296-26.862-13.241-30.997-14.761
			c-4.135-1.521-7.175-2.295-10.261,2.295c-3.086,4.591-11.736,14.761-14.381,17.817c-2.645,3.055-5.306,3.451-9.805,1.155
			c-4.5-2.296-19.2-7.084-36.485-22.56c-9.954-9.182-18.507-19.773-25.387-31.438c-2.66-4.561-0.289-7.008,2.022-9.228
			c2.311-2.219,4.561-5.29,6.795-7.951c1.89-2.292,3.427-4.854,4.561-7.601c1.226-2.542,1.089-5.531-0.365-7.95
			c-1.231-2.281-10.353-24.627-14.001-33.733c-3.648-9.106-7.434-7.601-10.231-7.814c-2.797-0.213-5.67-0.137-8.665-0.137
			c-4.668,0.109-9.077,2.165-12.161,5.67c-4.089,4.515-15.841,15.536-15.841,37.883c0,22.347,16.251,43.903,18.531,46.974
			s32.015,48.905,77.621,68.561c10.824,4.652,19.276,7.449,25.843,9.608c9.261,2.793,19.044,3.402,28.58,1.778
			c8.726-1.277,26.847-10.96,30.662-21.556s3.8-19.763,2.66-21.572s-4.089-3.131-8.665-5.458l0,0L3696.077,4177.859z"/>
	</g>
	<g>
	</g>
</g>
</svg>
