<svg id="Layer_1" viewBox="0 0 512 512" xmlns="http://www.w3.org/2000/svg" data-name="Layer 1"><path d="m452.438 182.771-121.077-132.865a7 7 0 0 0 -5.173-2.285h-7.688l-33.115-36.336a7 7 0 0 0 -5.174-2.285h-190.911c-17.4 0-31.562 15.23-31.562 33.952v387.476c0 18.721 14.159 33.952 31.561 33.952h14.416v4.668c0 18.722 14.158 33.952 31.561 33.952h287.424c17.367 0 31.525-15.225 31.561-33.938v-281.577a7 7 0 0 0 -1.823-4.714zm-21.023-2.286h-97.837l-.336-107.73zm-342.115 269.895c-9.683 0-17.561-8.95-17.561-19.952v-387.476c-.004-11.002 7.874-19.952 17.561-19.952h187.819l22.436 24.621h-164.282c-17.4 0-31.561 15.231-31.561 33.951v368.808zm333.4 38.62h-287.427c-9.683 0-17.561-8.95-17.561-19.952v-387.476c0-11 7.878-19.951 17.561-19.951h183.934l.393 125.886a7 7 0 0 0 7 6.978h113.665v274.549c-.021 11.01-7.899 19.966-17.565 19.966zm-280.24-369.222a7 7 0 0 1 7-7h112a7 7 0 0 1 0 14h-112a7 7 0 0 1 -7-7zm0 44a7 7 0 0 1 7-7h112a7 7 0 0 1 0 14h-112a7 7 0 0 1 -7-7zm119 51h-112a7 7 0 0 1 0-14h112a7 7 0 0 1 0 14zm145.466 19.97c-58.068 1.881-103.613 20.243-136.222 54.762l-59.569.144a15.3 15.3 0 0 0 -12.571 6.5l-26.391 37.09a15.475 15.475 0 0 0 11.46 24.4l45.1 3.366c-.618 1.768-1.227 3.546-1.815 5.35a7 7 0 0 0 1.779 7.191l46.784 45.428a6.995 6.995 0 0 0 7.054 1.631c1.806-.591 3.586-1.2 5.355-1.827l3.313 44.382a15.3 15.3 0 0 0 8.854 12.858 15.521 15.521 0 0 0 6.613 1.5 15.36 15.36 0 0 0 8.936-2.893l37.094-26.387a15.3 15.3 0 0 0 6.5-12.572l.147-59.627c33.212-32.173 51.577-76.94 54.792-133.9a7 7 0 0 0 -7.215-7.391zm-222.25 108.942a1.475 1.475 0 0 1 -1.1-2.326l26.392-37.09a1.276 1.276 0 0 1 1.2-.619l47.666-.115a199.5 199.5 0 0 0 -24.879 43.828zm160.524 91.948a1.265 1.265 0 0 1 -.621 1.2l-37.089 26.39a1.476 1.476 0 0 1 -2.325-1.1l-3.628-48.612a194.97 194.97 0 0 0 43.779-25.313zm-63.028-29.669-40.561-39.386c25.569-74.171 77.339-112.683 158.015-117.483-6.662 80.442-45.159 131.839-117.452 156.869zm-89.787 16.86a7 7 0 0 1 -4.949-11.949l26.442-26.442a7 7 0 1 1 9.9 9.9l-26.442 26.442a6.972 6.972 0 0 1 -4.949 2.049zm50.716-9.17-51.022 51.023a7 7 0 0 1 -9.9-9.9l51.021-51.021a7 7 0 0 1 9.9 9.9zm20.34 9.426a7 7 0 0 1 0 9.9l-26.441 26.441a7 7 0 0 1 -9.9-9.9l26.442-26.442a7 7 0 0 1 9.901.001zm84.72-97.044a24.968 24.968 0 1 0 -24.961-24.968 25 25 0 0 0 24.963 24.968zm0-35.936a10.968 10.968 0 1 1 -10.961 10.968 10.98 10.98 0 0 1 10.963-10.968z"/></svg>