<svg id="OBJECT" height="512" viewBox="0 0 32 32" width="512" xmlns="http://www.w3.org/2000/svg"><path d="m16 7.5a8.51 8.51 0 0 0 -8.5 8.5 8.28 8.28 0 0 0 .72 3.41 1 1 0 0 0 1.78-.82 6.33 6.33 0 0 1 -.5-2.59 6.5 6.5 0 0 1 13 0 6.33 6.33 0 0 1 -.5 2.59 1 1 0 0 0 .5 1.32 1 1 0 0 0 .41.09 1 1 0 0 0 .91-.59 8.28 8.28 0 0 0 .68-3.41 8.51 8.51 0 0 0 -8.5-8.5z" fill="#011839"/><path d="m30 15h-.55a13.5 13.5 0 0 0 -12.45-12.45v-.55a1 1 0 0 0 -2 0v.55a13.5 13.5 0 0 0 -12.45 12.45h-.55a1 1 0 0 0 0 2h.55a13.5 13.5 0 0 0 12.45 12.45v.55a1 1 0 0 0 2 0v-.55a13.5 13.5 0 0 0 12.45-12.45h.55a1 1 0 0 0 0-2zm-13 12.45v-.45a1 1 0 0 0 -2 0v.45a11.52 11.52 0 0 1 -10.45-10.45h.45a1 1 0 0 0 0-2h-.45a11.52 11.52 0 0 1 10.45-10.45v.45a1 1 0 0 0 2 0v-.45a11.52 11.52 0 0 1 10.45 10.45h-.45a1 1 0 0 0 0 2h.45a11.52 11.52 0 0 1 -10.45 10.45z" fill="#011839"/><g fill="#7738c8"><path d="m19 18.3a4.45 4.45 0 0 1 -6.08 0 6.42 6.42 0 0 0 -3.1 3.56 8.46 8.46 0 0 0 12.28 0 6.42 6.42 0 0 0 -3.1-3.56z"/><circle cx="16" cy="15" r="2.5"/></g></svg>