<?xml version="1.0" encoding="utf-8"?>
<!-- Generator: Adobe Illustrator 16.0.0, SVG Export Plug-In . SVG Version: 6.00 Build 0)  -->
<!DOCTYPE svg PUBLIC "-//W3C//DTD SVG 1.1//EN" "http://www.w3.org/Graphics/SVG/1.1/DTD/svg11.dtd">
<svg version="1.1" id="Layer_1" xmlns="http://www.w3.org/2000/svg" xmlns:xlink="http://www.w3.org/1999/xlink" x="0px" y="0px"
	 width="48px" height="48px" viewBox="0 0 48 48" enable-background="new 0 0 48 48" xml:space="preserve">
<path fill="#E74F5A" d="M24.557,26.203h4.918c1.397,0,2.283-0.77,2.283-2.006c0-1.166-0.886-2.006-2.283-2.006h-4.918
	c-0.163,0-0.303,0.14-0.303,0.28v3.453C24.277,26.086,24.394,26.203,24.557,26.203z"/>
<path fill="#E74F5A" d="M24.557,34.158h5.08c1.562,0,2.494-0.793,2.494-2.193c0-1.213-0.886-2.193-2.494-2.193h-5.08
	c-0.163,0-0.303,0.141-0.303,0.28v3.804C24.277,34.041,24.394,34.158,24.557,34.158z"/>
<path fill="#E74F5A" d="M42.548,4.086L28.006,18.597h2.377c3.705,0,5.896,2.333,5.896,4.876c0,2.005-1.353,3.476-2.797,4.128
	c-0.232,0.094-0.232,0.42,0.023,0.514c1.678,0.652,2.866,2.402,2.866,4.455c0,2.894-1.935,5.203-5.687,5.203h-10.3
	c-0.163,0-0.303-0.141-0.303-0.28V26.506L4.119,42.417C3.91,42.627,4.049,43,4.352,43h38.382c0.14,0,0.256-0.117,0.256-0.257V4.296
	C43.061,4.04,42.734,3.9,42.548,4.086z"/>
</svg>
